<mxfile host="app.diagrams.net" modified="2024-05-01T13:17:03.073Z" agent="Mozilla/5.0 (Macintosh; Intel Mac OS X 10_15_7) AppleWebKit/605.1.15 (KHTML, like Gecko) Version/17.2 Safari/605.1.15" etag="KflxTu1EBQfJK_4JY7ha" version="24.2.8" type="device">
  <diagram name="Page-1" id="X3yYcv1iftkCJwVImBNm">
    <mxGraphModel dx="634" dy="529" grid="1" gridSize="10" guides="1" tooltips="1" connect="1" arrows="1" fold="1" page="1" pageScale="1" pageWidth="2336" pageHeight="1654" math="0" shadow="0">
      <root>
        <mxCell id="0" />
        <mxCell id="1" parent="0" />
        <mxCell id="GxY9ieL4FsbwTbhkqxk0-16" value="&lt;p style=&quot;margin:0px;margin-top:4px;margin-left:10px;text-align:left;&quot;&gt;&lt;b&gt;act2&lt;/b&gt;   [Mooving to room]&lt;/p&gt;" style="html=1;shape=mxgraph.sysml.package;align=left;spacingLeft=5;verticalAlign=top;spacingTop=-3;labelX=148.07;html=1;overflow=fill;" vertex="1" parent="1">
          <mxGeometry x="400" y="160" width="570" height="380" as="geometry" />
        </mxCell>
        <mxCell id="_2sq-AuTwj2sfxO2wzql-1" value="" style="ellipse;whiteSpace=wrap;html=1;aspect=fixed;strokeColor=#000000;fillColor=#000000;" parent="1" vertex="1">
          <mxGeometry x="480" y="190" width="32" height="32" as="geometry" />
        </mxCell>
        <mxCell id="_2sq-AuTwj2sfxO2wzql-9" style="edgeStyle=orthogonalEdgeStyle;rounded=0;orthogonalLoop=1;jettySize=auto;html=1;exitX=0.5;exitY=1;exitDx=0;exitDy=0;entryX=0.5;entryY=0;entryDx=0;entryDy=0;" parent="1" source="_2sq-AuTwj2sfxO2wzql-1" target="GxY9ieL4FsbwTbhkqxk0-3" edge="1">
          <mxGeometry relative="1" as="geometry">
            <mxPoint x="530.9949999999999" y="340" as="sourcePoint" />
            <mxPoint x="531" y="280" as="targetPoint" />
          </mxGeometry>
        </mxCell>
        <mxCell id="GxY9ieL4FsbwTbhkqxk0-4" value="Keypad Input Int value" style="edgeLabel;html=1;align=center;verticalAlign=middle;resizable=0;points=[];" vertex="1" connectable="0" parent="_2sq-AuTwj2sfxO2wzql-9">
          <mxGeometry x="0.0278" y="-1" relative="1" as="geometry">
            <mxPoint as="offset" />
          </mxGeometry>
        </mxCell>
        <mxCell id="_2sq-AuTwj2sfxO2wzql-11" style="edgeStyle=orthogonalEdgeStyle;rounded=0;orthogonalLoop=1;jettySize=auto;html=1;exitX=0.5;exitY=1;exitDx=0;exitDy=0;entryX=0;entryY=0.5;entryDx=0;entryDy=0;dashed=1;" parent="1" source="GxY9ieL4FsbwTbhkqxk0-2" target="_2sq-AuTwj2sfxO2wzql-10" edge="1">
          <mxGeometry relative="1" as="geometry">
            <mxPoint x="531" y="460" as="sourcePoint" />
          </mxGeometry>
        </mxCell>
        <mxCell id="_2sq-AuTwj2sfxO2wzql-29" style="edgeStyle=orthogonalEdgeStyle;rounded=0;orthogonalLoop=1;jettySize=auto;html=1;exitX=1;exitY=0.5;exitDx=0;exitDy=0;entryX=1;entryY=0.5;entryDx=0;entryDy=0;" parent="1" source="_2sq-AuTwj2sfxO2wzql-10" target="_2sq-AuTwj2sfxO2wzql-22" edge="1">
          <mxGeometry relative="1" as="geometry">
            <Array as="points">
              <mxPoint x="896" y="480" />
              <mxPoint x="896" y="310" />
            </Array>
          </mxGeometry>
        </mxCell>
        <mxCell id="_2sq-AuTwj2sfxO2wzql-30" value="Reached Room" style="edgeLabel;html=1;align=center;verticalAlign=middle;resizable=0;points=[];" parent="_2sq-AuTwj2sfxO2wzql-29" vertex="1" connectable="0">
          <mxGeometry x="0.1409" relative="1" as="geometry">
            <mxPoint as="offset" />
          </mxGeometry>
        </mxCell>
        <mxCell id="_2sq-AuTwj2sfxO2wzql-10" value="Moving along planned path whilst avoiding obstructions" style="rounded=1;whiteSpace=wrap;html=1;" parent="1" vertex="1">
          <mxGeometry x="666" y="450" width="150" height="60" as="geometry" />
        </mxCell>
        <mxCell id="_2sq-AuTwj2sfxO2wzql-22" value="Detecting room number" style="rounded=1;whiteSpace=wrap;html=1;" parent="1" vertex="1">
          <mxGeometry x="696" y="280" width="150" height="60" as="geometry" />
        </mxCell>
        <mxCell id="GxY9ieL4FsbwTbhkqxk0-1" value="`" style="html=1;shape=mxgraph.sysml.actFinal;strokeWidth=2;verticalLabelPosition=bottom;verticalAlignment=top;" vertex="1" parent="1">
          <mxGeometry x="756" y="215" width="30" height="30" as="geometry" />
        </mxCell>
        <mxCell id="GxY9ieL4FsbwTbhkqxk0-2" value="Planning route using Ros package (Navigation Planner)" style="shape=rect;html=1;rounded=1;whiteSpace=wrap;align=center;" vertex="1" parent="1">
          <mxGeometry x="416" y="370" width="160" height="80" as="geometry" />
        </mxCell>
        <mxCell id="GxY9ieL4FsbwTbhkqxk0-3" value="" style="rounded=0;whiteSpace=wrap;html=1;" vertex="1" parent="1">
          <mxGeometry x="486.5" y="352" width="19.01" height="18" as="geometry" />
        </mxCell>
        <mxCell id="GxY9ieL4FsbwTbhkqxk0-6" value="" style="rounded=0;whiteSpace=wrap;html=1;" vertex="1" parent="1">
          <mxGeometry x="676.99" y="301" width="19.01" height="18" as="geometry" />
        </mxCell>
        <mxCell id="GxY9ieL4FsbwTbhkqxk0-7" value="" style="rhombus;whiteSpace=wrap;html=1;" vertex="1" parent="1">
          <mxGeometry x="590" y="210" width="60" height="40" as="geometry" />
        </mxCell>
        <mxCell id="GxY9ieL4FsbwTbhkqxk0-8" style="edgeStyle=orthogonalEdgeStyle;rounded=0;orthogonalLoop=1;jettySize=auto;html=1;entryX=0.5;entryY=1;entryDx=0;entryDy=0;" edge="1" parent="1" source="GxY9ieL4FsbwTbhkqxk0-6" target="GxY9ieL4FsbwTbhkqxk0-7">
          <mxGeometry relative="1" as="geometry" />
        </mxCell>
        <mxCell id="GxY9ieL4FsbwTbhkqxk0-11" value="Detected" style="edgeLabel;html=1;align=center;verticalAlign=middle;resizable=0;points=[];" vertex="1" connectable="0" parent="GxY9ieL4FsbwTbhkqxk0-8">
          <mxGeometry x="0.2671" y="-1" relative="1" as="geometry">
            <mxPoint as="offset" />
          </mxGeometry>
        </mxCell>
        <mxCell id="GxY9ieL4FsbwTbhkqxk0-12" style="edgeStyle=orthogonalEdgeStyle;rounded=0;orthogonalLoop=1;jettySize=auto;html=1;exitX=1;exitY=0.5;exitDx=0;exitDy=0;entryX=0;entryY=0.5;entryDx=0;entryDy=0;entryPerimeter=0;" edge="1" parent="1" source="GxY9ieL4FsbwTbhkqxk0-7" target="GxY9ieL4FsbwTbhkqxk0-1">
          <mxGeometry relative="1" as="geometry" />
        </mxCell>
        <mxCell id="GxY9ieL4FsbwTbhkqxk0-13" value="Correct room" style="edgeLabel;html=1;align=center;verticalAlign=middle;resizable=0;points=[];" vertex="1" connectable="0" parent="GxY9ieL4FsbwTbhkqxk0-12">
          <mxGeometry x="-0.034" y="-1" relative="1" as="geometry">
            <mxPoint as="offset" />
          </mxGeometry>
        </mxCell>
        <mxCell id="GxY9ieL4FsbwTbhkqxk0-14" style="edgeStyle=orthogonalEdgeStyle;rounded=0;orthogonalLoop=1;jettySize=auto;html=1;entryX=0.921;entryY=-0.003;entryDx=0;entryDy=0;entryPerimeter=0;" edge="1" parent="1" source="GxY9ieL4FsbwTbhkqxk0-7" target="GxY9ieL4FsbwTbhkqxk0-2">
          <mxGeometry relative="1" as="geometry" />
        </mxCell>
        <mxCell id="GxY9ieL4FsbwTbhkqxk0-15" value="Wrong room" style="edgeLabel;html=1;align=center;verticalAlign=middle;resizable=0;points=[];" vertex="1" connectable="0" parent="GxY9ieL4FsbwTbhkqxk0-14">
          <mxGeometry x="0.5077" y="1" relative="1" as="geometry">
            <mxPoint as="offset" />
          </mxGeometry>
        </mxCell>
      </root>
    </mxGraphModel>
  </diagram>
</mxfile>
